<?xml version="1.0" standalone="no"?>
<!DOCTYPE svg PUBLIC "-//W3C//DTD SVG 20010904//EN"
 "http://www.w3.org/TR/2001/REC-SVG-20010904/DTD/svg10.dtd">
<svg version="1.0" xmlns="http://www.w3.org/2000/svg"
 width="150.000000pt" height="150.000000pt" viewBox="0 0 150.000000 150.000000"
 preserveAspectRatio="xMidYMid meet">

<g transform="translate(0.000000,150.000000) scale(0.100000,-0.100000)"
fill="#000000" stroke="none">
<path d="M515 1478 c-44 -35 -32 -78 71 -256 106 -184 121 -202 167 -202 45 0
56 14 167 208 103 182 111 210 66 249 -27 23 -31 23 -235 23 -198 0 -210 -1
-236 -22z"/>
<path d="M241 1318 c-31 -11 -37 -19 -148 -213 -52 -89 -93 -171 -93 -186 0
-15 11 -36 26 -50 25 -23 30 -24 214 -27 203 -3 262 5 281 40 20 36 3 79 -98
252 -105 182 -128 205 -182 184z"/>
<path d="M1192 1306 c-33 -29 -209 -329 -218 -373 -4 -23 0 -37 19 -59 l25
-29 190 -3 c257 -4 302 10 289 92 -6 39 -180 343 -213 374 -32 28 -55 28 -92
-2z"/>
<path d="M55 651 c-38 -16 -58 -48 -51 -81 6 -35 176 -332 209 -367 29 -33 76
-30 109 5 37 40 208 343 208 369 0 74 -29 83 -262 82 -106 0 -202 -4 -213 -8z"/>
<path d="M1021 649 c-36 -15 -52 -40 -47 -76 5 -33 173 -332 209 -370 23 -26
73 -31 100 -10 28 21 209 340 214 377 4 26 0 42 -15 60 l-20 25 -209 2 c-120
1 -218 -2 -232 -8z"/>
<path d="M723 480 c-25 -10 -55 -54 -161 -240 -77 -135 -87 -175 -53 -209 29
-29 68 -33 274 -29 177 3 188 4 209 25 39 39 28 74 -72 248 -118 203 -141 227
-197 205z"/>
</g>
</svg>
