<svg width="176" height="51" viewBox="0 0 176 51" fill="none" xmlns="http://www.w3.org/2000/svg">
<g id="Group">
<path id="Vector" d="M114.981 0.974059C107.432 4.37175 103.454 10.2069 101.289 20.917C100.762 23.5761 100.118 25.792 99.9427 25.792C99.7087 25.792 98.5969 24.6102 97.4851 23.1329C96.4319 21.6557 94.4424 19.8091 93.1551 19.0705C90.3465 17.4455 85.4313 17.2239 82.6227 18.7012L80.5747 19.8091V11.4626C80.5747 2.30359 80.0481 0.678607 77.0054 0.678607C74.1967 0.678607 74.1382 0.974059 74.1382 25.9397V49.4281H77.3564H80.5747V40.5646C80.5747 28.9681 81.0428 27.6386 85.9579 25.792C88.2985 24.9056 91.3997 26.2352 93.0966 28.8204C94.5595 30.9624 94.618 31.4794 94.618 40.2691V49.4281H98.1288C101.464 49.4281 101.64 49.3543 101.991 47.36C102.166 46.252 102.751 43.5191 103.278 41.3032C104.273 37.2407 104.273 37.2407 106.789 37.0192C109.129 36.7976 109.246 36.8714 109.246 38.8657C109.305 44.7748 113.284 50.019 118.257 50.6838C121.359 51.127 126.391 49.3543 129.375 46.8429L131.599 44.9964L133.296 46.7691C135.519 49.1327 138.445 50.1668 143.009 50.1668C150.85 50.1668 155.999 45.5134 156.525 37.9055C156.818 33.1044 155.706 31.4056 151.201 30.2238C147.163 29.1897 146.11 27.8602 147.573 25.792C148.802 24.0931 150.733 23.9454 153.541 25.2011C155.238 26.0136 155.589 25.9397 156.935 24.3147C157.754 23.3545 158.398 21.9511 158.398 21.2864C158.398 19.2921 155.414 17.6671 151.786 17.6671C145.115 17.6671 139.673 22.9852 139.673 29.4851C139.673 33.9169 140.376 34.5817 148.334 37.3146C149.738 37.8317 149.796 39.8998 148.509 41.5248C146.169 44.5532 139.791 43.0021 138.211 39.0135C137.684 37.7578 137.333 34.8033 137.333 31.3317C137.333 27.7124 136.982 24.7579 136.455 23.2807C134.232 17.4455 126.683 15.8205 120.013 19.8091C117.614 21.2125 115.566 23.2068 113.576 26.0874C110.943 29.8545 110.534 30.2238 108.193 30.2238C106.028 30.2238 105.677 30.0022 105.97 28.8942C108.369 18.8489 109.597 14.7126 110.826 12.7921C112.289 10.3546 115.858 8.0649 118.257 8.0649C120.013 8.0649 122.705 5.40583 122.705 3.63312C122.705 0.23543 119.311 -0.946377 114.981 0.974059ZM129.551 27.7124C130.779 29.2636 131.013 30.076 130.721 32.4397C130.311 36.3544 128.322 39.6782 125.396 41.3771C122.47 43.0759 120.832 43.1498 118.667 41.6725C115.741 39.826 115.39 35.2464 117.848 30.7408C119.837 27.1215 121.71 25.8659 125.221 25.792C127.444 25.792 128.322 26.1613 129.551 27.7124Z" fill="black"/>
<path id="Vector_2" d="M166.999 1.56489C166.062 2.67284 165.126 5.3319 164.307 9.17278C163.663 12.4227 162.318 18.5534 161.323 22.8374C157.754 38.5702 157.695 40.7122 160.562 45.0702C164.249 50.536 172.089 50.9792 173.201 45.8088C173.611 43.6668 172.44 42.1895 169.866 41.4509C168.403 41.0816 167.116 40.1952 166.355 38.8657C165.243 37.0191 165.243 36.5759 165.945 32.3657C167.174 24.684 167.35 24.3147 170.275 24.3147C173.435 24.3147 176.127 22.0249 175.834 19.5874C175.659 18.2579 175.191 18.0363 172.616 17.8147C170.685 17.667 169.515 17.2238 169.515 16.7068C169.515 16.1898 170.041 13.383 170.685 10.4284C172.031 4.29782 172.148 2.08194 171.153 0.826265C170.1 -0.503267 168.579 -0.207816 166.999 1.56489Z" fill="black"/>
<path id="Vector_3" d="M7.25671 19.5875C4.09697 21.6557 1.28832 26.0875 0.352098 30.4454C-1.11074 37.2408 2.10751 45.218 7.72482 48.9111C11.9963 51.7179 20.1882 50.3884 21.3 46.7691C21.4755 46.1782 21.3585 44.8486 21.0074 43.8884C20.3638 42.1896 20.1297 42.1157 15.3901 42.2634C10.8846 42.4112 10.2994 42.2634 8.95361 40.6385C6.14495 37.3146 5.9109 31.4056 8.36847 27.934C9.94834 25.7181 12.9911 24.9795 16.3263 25.9397C18.9594 26.7522 19.3105 26.6784 20.4223 25.275C24.8693 19.6614 14.2198 15.008 7.25671 19.5875Z" fill="black"/>
<path id="Vector_4" d="M29.0819 19.2182C21.1241 23.7238 18.725 34.6555 23.6987 43.7407C27.034 49.9451 35.1674 52.4565 40.5506 48.9111C41.8379 48.0247 43.2423 46.769 43.6519 46.1781C44.7636 44.5531 45.4073 44.7009 46.0509 46.8429C46.6946 48.9111 49.2106 50.019 50.6735 48.9111C51.2001 48.4679 51.6682 47.3599 51.7852 46.3259C52.0193 43.8884 46.9286 26.8999 44.9977 23.7238C41.6624 18.1841 34.4067 16.1898 29.0819 19.2182ZM36.8058 25.792C37.4494 25.792 38.6782 26.7522 39.6144 28.0079C45.1147 35.3941 38.5612 46.0304 31.1884 41.6725C25.6882 38.3487 26.3903 28.0079 32.2417 25.8658C33.2364 25.4965 34.4067 25.3488 34.8163 25.4965C35.2844 25.6442 36.1621 25.792 36.8058 25.792Z" fill="black"/>
<path id="Vector_5" d="M58.0463 18.7012C52.7216 21.7296 51.3758 30.7409 55.7058 34.3601C56.525 35.0249 58.9825 36.2067 61.089 36.9453C65.302 38.4226 66.1797 39.3828 65.302 41.451C64.4828 43.3714 62.1423 43.8146 58.5729 42.7805C54.8866 41.6726 53.4823 42.4851 53.7748 45.6612C54.0089 48.468 56.5835 49.7975 61.9082 49.7975C65.7701 49.7975 66.6478 49.502 68.7543 47.8032C71.797 45.218 72.9088 41.3033 71.9141 36.9453C71.0364 33.4738 69.2224 31.8488 64.5413 30.2977C60.6794 28.9681 59.3921 27.3432 60.6794 25.4227C61.3816 24.3886 62.1423 24.2409 65.068 24.6841C68.1692 25.0534 68.7543 24.9795 69.6905 23.65C71.9141 20.6216 68.5203 17.6671 62.7859 17.6671C61.1475 17.741 59.0411 18.1842 58.0463 18.7012Z" fill="black"/>
</g>
</svg>
